<svg width="109" height="102" viewBox="0 0 109 102" fill="none" xmlns="http://www.w3.org/2000/svg">
<g clip-path="url(#clip0_601_175)">
<g clip-path="url(#clip1_601_175)">
<path d="M60.9384 36.4252L59.3242 34.7855C50.8825 26.5888 43.1701 17.7328 35.5424 8.81944C33.7821 6.78166 31.9889 4.82227 30.1695 2.8533C29.5339 2.23843 29.0908 1.45233 28.8943 0.590332C28.6966 -0.271118 28.7541 -1.17149 29.0585 -2.00198C30.7462 -7.86226 33.0896 -13.5139 36.0441 -18.8497C36.3344 -19.4539 36.8117 -19.9499 37.4039 -20.2633C37.9965 -20.5777 38.6746 -20.6934 39.3378 -20.5939L45.9603 -19.9103L75.2411 -16.1686C75.9284 -16.1101 76.6184 -16.0871 77.3081 -16.101C77.6062 -17.52 76.6559 -18.2128 76.1031 -19.0531C73.598 -22.9025 70.9453 -26.6888 68.4616 -30.591C63.9757 -37.6111 58.8894 -44.2282 53.2588 -50.3679L51.4871 -52.3801C50.9872 -52.941 50.6814 -53.6477 50.6136 -54.396C50.5449 -55.1447 50.7196 -55.895 51.1093 -56.5366L57.6829 -68.1927C58.0602 -68.9105 58.6385 -69.5037 59.3453 -69.9002C60.053 -70.2963 60.86 -70.4795 61.6684 -70.4268C64.4988 -70.4187 67.3301 -70.5645 70.1226 -70.5404C81.5984 -70.5079 93.0222 -69.9721 104.469 -69.4887C108.231 -69.3487 108.883 -68.222 107.447 -64.8313C106.011 -61.4405 104.648 -57.9281 103.254 -54.4891C101.86 -51.051 101.217 -51.0642 97.7177 -51.7752L78.0674 -55.801C77.1038 -56.0061 76.0983 -56.4138 75.1573 -55.6871C75.257 -55.4007 75.2706 -55.0563 75.4656 -54.8532C81.042 -48.2499 85.3586 -40.7406 90.3872 -33.7735C91.138 -32.8842 91.6191 -31.7978 91.773 -30.6445C91.9265 -29.4902 91.7483 -28.3161 91.2579 -27.2611C89.3984 -23.0556 87.5556 -18.8142 85.7489 -14.5873C84.3011 -11.0167 82.8428 -7.4201 81.395 -3.84946C81.1957 -3.13174 80.7655 -2.49907 80.1723 -2.05006C79.5778 -1.60049 78.853 -1.35915 78.1076 -1.36247C77.367 -1.31638 76.6238 -1.30911 75.8815 -1.34138C68.161 -1.66947 60.635 -1.6414 53.2412 -2.85243C52.5066 -2.94632 51.7673 -2.999 51.0266 -3.01122C50.7832 -1.87869 51.6766 -1.42361 52.2354 -0.826935C56.5064 3.83022 61.5171 7.95644 66.1763 12.3404C68.4029 14.4442 70.5553 16.7338 72.7605 18.8905C73.5519 19.5815 74.0876 20.5196 74.2779 21.5539C74.4677 22.5869 74.3035 23.6544 73.8095 24.5828C71.804 29.5287 69.9197 34.5539 67.4116 39.297C65.3421 43.262 63.2562 47.19 61.4245 51.2525C60.9824 52.4361 60.1459 53.4317 59.0564 54.0723C57.9669 54.7128 56.6898 54.959 55.4404 54.7696C46.9885 54.4223 38.5143 54.2817 30.0452 54.0515L28.265 54.0376C28.1553 54.0233 28.0445 54.041 27.9451 54.0892C27.8461 54.1364 27.7618 54.2113 27.7042 54.3055C27.6469 54.3988 27.6178 54.5079 27.6207 54.618C27.6235 54.7281 27.6579 54.8349 27.7193 54.9256C28.0609 55.568 28.4644 56.1751 28.9245 56.7383L43.7344 75.7408C44.2872 76.4268 44.8194 77.166 45.4096 77.8369C46.3639 78.7353 46.9794 79.9345 47.1542 81.2333C47.3289 82.5322 47.0509 83.8514 46.3676 84.9696C44.0717 89.6445 41.8819 94.3612 39.612 99.0467C39.3369 99.5707 38.9866 100.051 38.5716 100.473C38.2562 100.895 37.7853 101.175 37.2642 101.252C36.7431 101.329 36.2119 101.197 35.7872 100.884C34.9895 100.238 34.2481 99.5252 33.5715 98.7534C27.3345 91.9697 21.5704 84.7648 16.3205 77.1911C12.6985 72.1097 8.74233 67.2748 4.47882 62.7189C0.609332 58.285 0.530555 58.253 3.1203 52.9279C4.80626 49.4539 6.28094 45.8941 8.17766 42.6587C8.75482 41.2752 9.77157 40.1196 11.072 39.3714C12.3711 38.6237 13.8819 38.3256 15.3682 38.5214C30.5898 39.0293 45.8268 38.3284 60.9384 36.4252Z" fill="#FF161A"/>
</g>
</g>
<defs>
<clipPath id="clip0_601_175">
<rect width="108" height="101" fill="white" transform="translate(0.876465 0.920044)"/>
</clipPath>
<clipPath id="clip1_601_175">
<rect width="108" height="101" fill="white" transform="translate(0.876465 0.920044)"/>
</clipPath>
</defs>
</svg>
