<svg width="70" height="54" viewBox="0 0 70 54" fill="none" xmlns="http://www.w3.org/2000/svg">
<g clip-path="url(#clip0_601_178)">
<g clip-path="url(#clip1_601_178)">
<g clip-path="url(#clip2_601_178)">
<mask id="mask0_601_178" style="mask-type:luminance" maskUnits="userSpaceOnUse" x="0" y="0" width="70" height="54">
<path d="M70 0H0V54H70V0Z" fill="white"/>
</mask>
<g mask="url(#mask0_601_178)">
<path d="M46.464 34.8339C45.917 35.3929 45.465 36.0339 45.125 36.7339C43.417 39.4799 41.853 42.3109 40.438 45.2139C40.281 45.5809 40.061 45.9189 39.788 46.2139C39.535 46.4809 39.204 46.6639 38.841 46.7389C38.478 46.8149 38.1 46.7779 37.759 46.6339C37.41 46.5159 37.104 46.2979 36.882 46.0079C36.659 45.7169 36.53 45.3669 36.511 45.0039C36.489 44.6079 36.537 44.2119 36.654 43.8339C36.8 43.3529 36.993 42.8869 37.232 42.4439C39.084 38.7149 41.171 35.1049 43.481 31.6339C43.758 31.2149 44.066 30.8169 44.404 30.4439C44.848 29.9699 45.455 29.6739 46.107 29.6149C46.759 29.5559 47.41 29.7369 47.935 30.1239C48.393 30.4499 48.799 30.8409 49.142 31.2839C49.74 32.0189 50.295 32.7869 50.806 33.5839C52.469 36.2099 54.12 38.8539 55.756 41.5139C56.054 41.9809 56.286 42.4849 56.446 43.0139C56.594 43.4639 56.576 43.9509 56.394 44.3889C56.212 44.8269 55.878 45.1859 55.452 45.4049C55.026 45.6229 54.536 45.6849 54.068 45.5809C53.6 45.4759 53.184 45.2119 52.896 44.8339C52.595 44.4349 52.32 44.0169 52.074 43.5839C50.552 41.1139 49.03 38.6439 47.509 36.1939C47.297 35.6529 46.935 35.1809 46.464 34.8339Z" fill="#FFC92B"/>
<path d="M44.262 20.834C43.894 20.852 43.527 20.774 43.199 20.607C42.871 20.44 42.594 20.191 42.395 19.884C41.956 19.24 41.553 18.572 41.188 17.884C40.062 15.884 38.946 13.794 37.83 11.754C37.556 11.264 37.282 10.754 36.978 10.324C36.674 9.89397 36.522 9.24397 36.035 9.22397C35.548 9.20397 35.406 9.92397 35.193 10.344C33.955 12.824 32.748 15.344 31.51 17.804C31.329 18.21 31.104 18.595 30.84 18.954C30.591 19.293 30.232 19.538 29.823 19.649C29.414 19.76 28.978 19.73 28.588 19.564C28.187 19.413 27.848 19.134 27.626 18.772C27.403 18.41 27.31 17.984 27.361 17.564C27.395 17.124 27.519 16.695 27.726 16.304C29.214 13.204 30.712 10.107 32.22 7.01397C32.509 6.41697 32.849 5.84497 33.235 5.30397C34.574 3.47397 36.471 3.30397 38.114 4.92397C38.482 5.27697 38.821 5.65797 39.129 6.06397C39.997 7.20897 40.774 8.41997 41.452 9.68397C42.893 12.254 44.323 14.824 45.764 17.384C46.018 17.717 46.174 18.113 46.213 18.528C46.252 18.943 46.174 19.36 45.987 19.734C45.825 20.052 45.579 20.322 45.276 20.515C44.973 20.708 44.623 20.818 44.262 20.834Z" fill="#FFC92B"/>
<path d="M1.32892 13.914C1.31792 13.414 1.42192 12.918 1.63292 12.464C2.94192 9.46395 4.21991 6.46395 5.52891 3.46395C5.84192 2.69195 6.26492 1.96795 6.78692 1.31395C7.02492 0.967952 7.33492 0.673952 7.69492 0.452952C8.05492 0.231952 8.45891 0.0879524 8.87891 0.0289524C9.29991 -0.0290476 9.7279 -4.75273e-05 10.1359 0.113952C10.5439 0.228952 10.9239 0.425952 11.2499 0.693952C11.9399 1.17395 12.5469 1.76195 13.0459 2.43395C13.7759 3.43395 14.4869 4.43395 15.1459 5.43395C16.5159 7.59395 17.8449 9.77395 19.2039 11.954C19.4189 12.269 19.6019 12.604 19.7519 12.954C19.9199 13.37 19.9409 13.83 19.8119 14.26C19.6839 14.69 19.4119 15.064 19.0419 15.324C18.6549 15.608 18.1779 15.747 17.6959 15.716C17.2149 15.685 16.7599 15.485 16.4139 15.154C15.9869 14.713 15.6149 14.223 15.3079 13.694C14.0499 11.694 12.8229 9.61395 11.5649 7.58395C11.0979 6.83395 10.6009 6.09395 10.0839 5.36395C9.69792 4.82395 9.45492 4.85395 9.14991 5.50395C8.48091 6.96395 7.83092 8.43395 7.18192 9.90395C6.64492 11.124 6.16792 12.354 5.60992 13.574C5.39592 14.157 5.04891 14.684 4.59491 15.114C4.30791 15.384 3.94391 15.56 3.55092 15.617C3.15892 15.675 2.75791 15.61 2.40391 15.434C2.09791 15.305 1.8349 15.094 1.6449 14.825C1.4549 14.557 1.34592 14.241 1.32892 13.914Z" fill="#FFC92B"/>
<path d="M21.02 21.054C21.948 21.061 22.837 21.419 23.505 22.054C24.249 22.729 24.906 23.492 25.463 24.324C26.525 25.884 27.577 27.454 28.618 29.034C29.47 30.334 30.312 31.64 31.144 32.954C31.356 33.269 31.536 33.604 31.682 33.954C31.819 34.349 31.827 34.776 31.705 35.176C31.583 35.576 31.338 35.928 31.002 36.184C30.698 36.434 30.324 36.588 29.929 36.626C29.535 36.663 29.138 36.582 28.791 36.394C28.294 36.127 27.883 35.728 27.604 35.244C27.005 34.314 26.417 33.374 25.808 32.434C24.692 30.714 23.576 28.984 22.45 27.264C22.2 26.896 21.925 26.546 21.628 26.214C21.596 26.168 21.552 26.131 21.502 26.106C21.452 26.08 21.396 26.067 21.339 26.067C21.283 26.067 21.227 26.08 21.177 26.106C21.126 26.131 21.083 26.168 21.05 26.214C20.748 26.611 20.471 27.025 20.218 27.454C18.96 29.684 17.722 31.914 16.475 34.134C16.299 34.481 16.099 34.815 15.876 35.134C15.608 35.531 15.199 35.813 14.729 35.926C14.259 36.039 13.763 35.974 13.34 35.744C12.919 35.517 12.593 35.15 12.421 34.709C12.248 34.268 12.239 33.781 12.396 33.334C12.474 33.067 12.579 32.809 12.711 32.564C14.354 29.674 15.754 26.624 17.601 23.864C17.995 23.256 18.425 22.671 18.889 22.114C19.149 21.8 19.473 21.544 19.84 21.361C20.207 21.179 20.609 21.074 21.02 21.054Z" fill="#FFC92B"/>
<path d="M52.5501 24.074C52.6091 23.735 52.6941 23.4 52.8041 23.074C53.8191 20.37 55.1831 17.805 56.8621 15.444C57.3251 14.816 57.8481 14.233 58.4241 13.704C58.9201 13.242 59.5641 12.964 60.2451 12.918C60.9261 12.873 61.6031 13.062 62.1581 13.454C62.9101 13.948 63.5661 14.571 64.0951 15.294C65.2241 16.817 66.1991 18.444 67.0071 20.154C67.8291 21.744 68.5791 23.344 69.3501 24.944C69.5311 25.285 69.6771 25.644 69.7871 26.014C69.8921 26.418 69.8661 26.844 69.7141 27.233C69.5611 27.623 69.2881 27.955 68.9341 28.184C68.5531 28.424 68.1041 28.537 67.6531 28.506C67.2021 28.476 66.7731 28.303 66.4291 28.014C66.0641 27.682 65.7701 27.28 65.5661 26.834C64.7851 25.154 63.9631 23.504 63.1621 21.834C62.5871 20.575 61.9091 19.364 61.1331 18.214C60.6971 17.594 60.4021 17.574 59.9971 18.214C59.4011 19.084 58.8521 19.986 58.3531 20.914C57.7551 22.044 57.2581 23.224 56.7001 24.374C56.5171 24.777 56.2861 25.156 56.0101 25.504C55.7501 25.8 55.4041 26.009 55.0191 26.104C54.6341 26.199 54.2291 26.174 53.8591 26.034C53.4591 25.885 53.1171 25.615 52.8821 25.263C52.6471 24.911 52.5311 24.495 52.5501 24.074Z" fill="#FFC92B"/>
<path d="M8.05506 44.5541C7.64906 44.8141 7.56806 45.2641 7.38506 45.654C6.37106 47.654 5.43806 49.764 4.44306 51.814C4.26606 52.221 4.04206 52.6071 3.77406 52.9641C3.47506 53.3731 3.03606 53.6621 2.53806 53.7761C2.03906 53.8901 1.51606 53.8221 1.06506 53.5841C0.637059 53.3561 0.307059 52.984 0.134059 52.536C-0.0399412 52.0891 -0.0439412 51.5941 0.122059 51.1441C0.254059 50.7811 0.410059 50.4271 0.588059 50.0841C1.76506 47.6241 2.90106 45.174 4.11906 42.724C4.46406 42.024 4.83906 41.3441 5.23506 40.6741C5.49706 40.2491 5.79506 39.847 6.12706 39.474C7.55806 37.884 9.27206 38.0041 10.4691 39.7741C10.8571 40.3801 11.1961 41.0151 11.4841 41.6741C12.6811 44.3041 13.8681 46.934 15.2581 49.474C15.5131 49.887 15.6691 50.352 15.7141 50.8341C15.7491 51.225 15.6581 51.6171 15.4541 51.9551C15.2501 52.2921 14.9441 52.5581 14.5781 52.7141C14.2211 52.8851 13.8181 52.939 13.4281 52.8691C13.0381 52.7991 12.6801 52.6081 12.4071 52.3241C12.0711 51.9571 11.7871 51.5471 11.5651 51.1041C10.6321 49.3241 9.74906 47.534 8.82606 45.7641C8.60306 45.3841 8.53206 44.8341 8.05506 44.5541Z" fill="#FFC92B"/>
</g>
</g>
</g>
</g>
<defs>
<clipPath id="clip0_601_178">
<rect width="70" height="54" fill="white"/>
</clipPath>
<clipPath id="clip1_601_178">
<rect width="70" height="54" fill="white"/>
</clipPath>
<clipPath id="clip2_601_178">
<rect width="70" height="54" fill="white"/>
</clipPath>
</defs>
</svg>
