<svg width="220" height="200" viewBox="0 0 220 200" fill="none" xmlns="http://www.w3.org/2000/svg">
<g clip-path="url(#clip0_601_191)">
<g clip-path="url(#clip1_601_191)">
<g clip-path="url(#clip2_601_191)">
<path d="M127.539 59.4341C127.502 60.238 127.391 61.0363 127.208 61.8203C124.828 68.9746 126.384 74.2058 134.042 76.73C146.444 84.2616 155.839 95.875 160.614 109.576C164.643 120.457 164.379 132.463 159.876 143.156C158.381 146.881 155.981 150.175 152.892 152.739C150.563 154.778 147.552 155.866 144.457 155.79C141.362 155.714 138.409 154.477 136.183 152.325C132.321 148.639 129.388 144.088 127.624 139.048C122.654 126.125 119.711 112.511 118.901 98.6887C118.473 92.3418 118.539 85.9512 118.64 79.5666C118.769 78.5196 118.498 77.4625 117.881 76.6068C117.265 75.7508 116.348 75.1589 115.314 74.9493C102.468 70.1711 90.1936 72.5814 82.3544 85.9004C78.8128 92.4946 76.2183 99.5543 74.6478 106.873C74.352 107.759 74.3433 108.716 74.622 109.608C74.9017 110.499 75.4541 111.282 76.2034 111.842C77.4288 112.867 78.6016 113.955 79.7166 115.1C96.0338 132.337 99.5784 152.066 92.3538 174.153C90.8974 178.744 88.2991 182.89 84.8032 186.201C83.809 187.391 82.5426 188.323 81.1112 188.918C79.6795 189.512 78.1258 189.75 76.5813 189.613C75.0368 189.475 73.5492 188.966 72.2447 188.129C70.9412 187.291 69.8587 186.151 69.0916 184.804C66.7961 181.527 65.2223 177.801 64.4726 173.871C63.1401 167.082 62.5945 160.162 62.8491 153.248C62.834 142.092 63.893 130.959 66.011 120.005C66.7683 117.757 66.6196 115.302 65.5963 113.162C64.5739 111.02 62.7563 109.364 60.5302 108.54C56.345 106.232 52.0159 104.192 47.5697 102.436C44.8151 101.393 41.8291 101.128 38.9353 101.671C36.0411 102.212 33.3518 103.539 31.1613 105.507C28.1371 108.121 25.4882 111.141 23.29 114.48C12.6385 129.809 7.14225 148.13 7.5967 166.79C8.16291 190.446 10.286 213.943 12.016 237.574C12.4766 249.03 13.6638 260.446 15.5732 271.751C15.6813 272.27 15.6961 272.804 15.6153 273.329C15.533 273.848 15.3016 274.332 14.9476 274.722C14.5951 275.111 14.1352 275.39 13.6264 275.522C13.1116 275.68 12.5606 275.676 12.0481 275.512C11.5357 275.347 11.0866 275.028 10.7603 274.6C9.9752 273.539 9.3934 272.341 9.04379 271.068C8.39444 268.545 7.92542 265.978 7.64043 263.388C5.09804 232.683 2.70772 202.225 1.15127 171.694C-0.200976 150.815 5.3116 130.066 16.8507 112.612C19.3773 108.546 22.4106 104.818 25.8779 101.516C28.9791 98.3732 32.9325 96.2054 37.2504 95.2826C41.5696 94.3593 46.0628 94.7222 50.1782 96.3229C55.6266 98.4295 60.8782 101.012 65.8719 104.043C67.3264 104.881 68.365 104.689 68.9189 103.119C69.4744 101.55 70.2308 99.0728 70.8149 97.021C72.4779 91.1374 75.0091 85.536 78.328 80.4005C81.8683 74.6965 87.2072 70.3312 93.5015 67.9945C99.7958 65.6578 106.689 65.482 113.095 67.4929C113.609 67.5652 114.092 67.8561 114.633 68.0059C119.425 69.3465 119.812 69.2497 120.377 64.6505C121.5 56.479 123.211 48.3995 125.497 40.4749C127.376 33.0032 129.93 25.7163 133.126 18.7068C134.501 15.5546 136.173 12.5413 138.12 9.70694C140.425 6.21664 143.892 3.65586 147.907 2.48007C151.921 1.3043 156.222 1.59023 160.046 3.28607C165.101 5.15122 169.788 7.89348 173.891 11.3858C180.954 17.478 186.92 24.7385 191.528 32.8481C199.29 46.2007 205.303 60.4944 209.419 75.3795C215.617 97.6718 219.023 120.647 219.559 143.779C220.071 160.017 219.131 176.204 219.018 192.356C219.023 195.014 219.106 197.645 219.111 200.303C219.17 201.633 219.135 202.967 219.006 204.293C218.987 204.964 218.704 205.601 218.219 206.065C217.734 206.53 217.086 206.786 216.415 206.777C215.877 206.786 215.351 206.615 214.921 206.291C214.491 205.967 214.182 205.508 214.044 204.988C213.523 203.206 213.226 201.367 213.158 199.513C213.249 190.244 213.397 180.834 213.63 171.622C214.532 149.311 213.277 126.966 209.882 104.897C207.197 88.0776 202.604 71.6182 196.192 55.8392C192.824 47.7162 188.721 39.9181 183.936 32.5414C179.223 24.79 172.934 18.1151 165.477 12.9478C162.644 10.9441 159.482 9.45333 156.134 8.5438C153.948 7.90696 151.622 7.93654 149.452 8.62789C147.283 9.31918 145.369 10.6428 143.955 12.4264C141.218 15.6981 139.089 19.4331 137.668 23.4537C132.953 35.0289 129.555 47.0986 127.539 59.4341ZM156.712 131.189C156.927 128.025 156.931 124.849 156.723 121.685C154.279 103.195 143.953 89.9707 128.28 80.756C126.278 79.5423 124.798 80.4973 124.803 83.1544C124.893 88.9686 124.941 94.8126 125.445 100.609C126.388 112.496 128.982 124.193 133.152 135.363C134.482 139.413 136.607 143.158 139.406 146.374C143.163 150.301 146.346 150.295 150.2 146.265C151.418 144.871 152.483 143.351 153.375 141.728C155.051 138.419 156.177 134.859 156.712 131.189ZM70.4433 134.694C69.4508 142.369 69.0629 150.111 69.2828 157.848C69.2119 162.889 69.7703 167.92 70.9432 172.824C71.5237 175.685 72.6884 178.395 74.3653 180.785C74.6585 181.305 75.0731 181.747 75.5736 182.073C76.0757 182.399 76.6481 182.599 77.2432 182.656C77.838 182.713 78.4379 182.625 78.9912 182.401C79.5455 182.175 80.0359 181.821 80.4228 181.364C82.8588 178.923 84.7566 176.001 85.9942 172.782C90.794 161.136 90.8915 148.084 86.266 136.369C83.9983 129.832 80.1129 123.974 74.9724 119.342C73.942 118.413 72.8525 118.71 72.6428 119.954C71.804 124.366 71.2552 128.855 70.4433 134.694Z" fill="#E9E6DD"/>
</g>
</g>
</g>
<defs>
<clipPath id="clip0_601_191">
<rect width="219" height="199" fill="white" transform="translate(0.876465 0.920044)"/>
</clipPath>
<clipPath id="clip1_601_191">
<rect width="219" height="199" fill="white" transform="translate(0.876465 0.920044)"/>
</clipPath>
<clipPath id="clip2_601_191">
<rect width="219" height="199" fill="white" transform="translate(0.876465 0.920044)"/>
</clipPath>
</defs>
</svg>
