<svg width="41" height="41" viewBox="0 0 41 41" fill="none" xmlns="http://www.w3.org/2000/svg">
<g clip-path="url(#clip0_601_322)">
<g clip-path="url(#clip1_601_322)">
<g clip-path="url(#clip2_601_322)">
<path d="M0.644531 20.6001C0.644531 9.55441 9.59884 0.600098 20.6445 0.600098C31.6902 0.600098 40.6445 9.55441 40.6445 20.6001C40.6445 31.6458 31.6902 40.6001 20.6445 40.6001C9.59884 40.6001 0.644531 31.6458 0.644531 20.6001Z" fill="#DD0004"/>
<path d="M20.6445 15.6001C25.0628 15.6001 28.6445 19.1818 28.6445 23.6001C28.6445 28.0184 25.0628 31.6001 20.6445 31.6001C16.2263 31.6001 12.6445 28.0184 12.6445 23.6001C12.6445 19.1818 16.2263 15.6001 20.6445 15.6001ZM20.6445 19.1001L19.322 21.7798L16.3648 22.2095L18.5047 24.2954L17.9995 27.2407L20.6445 25.8501L23.2895 27.2407L22.7844 24.2954L24.9243 22.2095L21.967 21.7798L20.6445 19.1001ZM21.6445 10.5991L26.6445 10.6001V13.6001L25.2811 14.7377C24.175 14.1578 22.947 13.779 21.6456 13.6496L21.6445 10.5991ZM19.6445 10.5991L19.6442 13.6495C18.3429 13.7788 17.115 14.1575 16.0089 14.7372L14.6445 13.6001V10.6001L19.6445 10.5991Z" fill="white"/>
</g>
</g>
</g>
<defs>
<clipPath id="clip0_601_322">
<rect width="41" height="40" fill="white" transform="translate(0 0.600098)"/>
</clipPath>
<clipPath id="clip1_601_322">
<rect width="41" height="40" fill="white" transform="translate(0 0.600098)"/>
</clipPath>
<clipPath id="clip2_601_322">
<rect width="41" height="40" fill="white" transform="translate(0 0.600098)"/>
</clipPath>
</defs>
</svg>
