<svg width="41" height="40" viewBox="0 0 41 40" fill="none" xmlns="http://www.w3.org/2000/svg">
<g clip-path="url(#clip0_601_304)">
<g clip-path="url(#clip1_601_304)">
<g clip-path="url(#clip2_601_304)">
<path d="M0.644531 20C0.644531 8.95431 9.59884 0 20.6445 0C31.6902 0 40.6445 8.95431 40.6445 20C40.6445 31.0457 31.6902 40 20.6445 40C9.59884 40 0.644531 31.0457 0.644531 20Z" fill="#DD0004"/>
<path d="M27.6445 30H13.6445C11.9877 30 10.6445 28.6569 10.6445 27V11C10.6445 10.4477 11.0923 10 11.6445 10H25.6445C26.1968 10 26.6445 10.4477 26.6445 11V23H30.6445V27C30.6445 28.6569 29.3014 30 27.6445 30ZM26.6445 25V27C26.6445 27.5523 27.0922 28 27.6445 28C28.1968 28 28.6445 27.5523 28.6445 27V25H26.6445ZM14.6445 15V17H22.6445V15H14.6445ZM14.6445 19V21H22.6445V19H14.6445ZM14.6445 23V25H19.6445V23H14.6445Z" fill="white"/>
</g>
</g>
</g>
<defs>
<clipPath id="clip0_601_304">
<rect width="41" height="40" fill="white"/>
</clipPath>
<clipPath id="clip1_601_304">
<rect width="41" height="40" fill="white"/>
</clipPath>
<clipPath id="clip2_601_304">
<rect width="41" height="40" fill="white"/>
</clipPath>
</defs>
</svg>
