<svg width="41" height="41" viewBox="0 0 41 41" fill="none" xmlns="http://www.w3.org/2000/svg">
<g clip-path="url(#clip0_601_396)">
<g clip-path="url(#clip1_601_396)">
<g clip-path="url(#clip2_601_396)">
<path d="M0.876465 20.9199C0.876465 9.87423 9.83078 0.919922 20.8765 0.919922C31.9222 0.919922 40.8765 9.87423 40.8765 20.9199C40.8765 31.9656 31.9222 40.9199 20.8765 40.9199C9.83078 40.9199 0.876465 31.9656 0.876465 20.9199Z" fill="#DD0004"/>
<path d="M28.2525 21.336L17.6539 28.4017C17.4241 28.5549 17.1137 28.4928 16.9605 28.2631C16.9057 28.1809 16.8765 28.0844 16.8765 27.9857V13.8542C16.8765 13.5781 17.1004 13.3542 17.3765 13.3542C17.4752 13.3542 17.5717 13.3834 17.6539 13.4382L28.2525 20.5039C28.4822 20.6571 28.5443 20.9676 28.3911 21.1973C28.3545 21.2522 28.3074 21.2994 28.2525 21.336Z" fill="white"/>
</g>
</g>
</g>
<defs>
<clipPath id="clip0_601_396">
<rect x="0.876465" y="0.919922" width="40" height="40" rx="20" fill="white"/>
</clipPath>
<clipPath id="clip1_601_396">
<rect width="40" height="40" fill="white" transform="translate(0.876465 0.919922)"/>
</clipPath>
<clipPath id="clip2_601_396">
<rect width="40" height="40" fill="white" transform="translate(0.876465 0.919922)"/>
</clipPath>
</defs>
</svg>
