<svg width="43" height="43" viewBox="0 0 43 43" fill="none" xmlns="http://www.w3.org/2000/svg">
<rect x="1.37646" y="1.05005" width="41" height="41" rx="20.5" fill="white"/>
<rect x="1.37646" y="1.05005" width="41" height="41" rx="20.5" stroke="white"/>
<path d="M14.7684 27.55V25.318H9.37642V24.198L13.2324 16.03H14.5524L10.6964 24.198H14.7684V20.838H15.9524V24.198H17.2084V25.318H15.9524V27.55H14.7684ZM19.1259 27.55L19.1339 16.03H20.3179V23.07L24.1739 18.91H25.7419L21.6939 23.23L26.2699 27.55H24.5579L20.3179 23.39V27.55H19.1259ZM30.0634 25.446V22.294H26.9114V21.286H30.0634V18.134H31.0714V21.286H34.2154V22.294H31.0714V25.446H30.0634Z" fill="#0F0F0F"/>
</svg>
